<?xml version="1.0" encoding="UTF-8"?>
<svg version="1.1" xmlns="http://www.w3.org/2000/svg" width="200" height="200">
<path d="M0 0 C4.09476934 1.40864628 7.21633619 3.84428468 10.6796875 6.40234375 C12.20473707 7.50137797 13.73079756 8.59901063 15.2578125 9.6953125 C16.02158203 10.24622559 16.78535156 10.79713867 17.57226562 11.36474609 C41.22257045 28.31620036 65.84583061 40.88879716 95.92578125 36.43359375 C114.5946991 32.91764607 129.39569375 24.31838695 144.63452148 13.36206055 C149.0160522 10.21383455 153.42478606 7.15074185 157.9921875 4.27734375 C159.46751953 3.34341797 159.46751953 3.34341797 160.97265625 2.390625 C164.0814032 0.82553171 166.31531229 0.01678303 169.8046875 -0.03515625 C172.1796875 1.5078125 172.1796875 1.5078125 173.8046875 3.96484375 C175.70787247 21.78341303 166.5635627 44.69347949 155.56054688 58.52929688 C152.47402727 62.17618021 149.17967968 65.58505073 145.8046875 68.96484375 C145.07378906 69.70734375 144.34289062 70.44984375 143.58984375 71.21484375 C126.90955999 87.11857799 103.45212976 94.16141817 80.8046875 93.96484375 C59.08046156 93.26406227 38.96297473 84.28374627 22.8046875 69.96484375 C21.77794922 69.07925781 21.77794922 69.07925781 20.73046875 68.17578125 C6.41678735 54.95882593 -4.36311979 32.52044599 -5.3984375 13.16796875 C-5.41390625 11.8634375 -5.429375 10.55890625 -5.4453125 9.21484375 C-5.47109375 7.9 -5.496875 6.58515625 -5.5234375 5.23046875 C-5.41515625 4.1528125 -5.306875 3.07515625 -5.1953125 1.96484375 C-2.1953125 -0.03515625 -2.1953125 -0.03515625 0 0 Z M157.5546875 17.58984375 C156.56339844 18.22148438 155.57210937 18.853125 154.55078125 19.50390625 C151.65268378 21.38553688 148.80652934 23.33511228 145.96484375 25.30078125 C120.16462743 43.05803455 94.43980618 51.43551216 62.7421875 45.83984375 C43.82555219 41.23276197 27.82108615 32.16015012 12.44897461 20.3684082 C9.46752806 17.81101995 9.46752806 17.81101995 5.8046875 16.96484375 C5.86760502 19.97140256 6.12221941 22.18271445 8.14550781 24.50146484 C10.02005517 26.13415219 11.94706409 27.65264354 13.9296875 29.15234375 C14.64527832 29.71187744 15.36086914 30.27141113 16.09814453 30.84790039 C18.31923444 32.57338124 20.55869112 34.27195114 22.8046875 35.96484375 C23.48595703 36.48369141 24.16722656 37.00253906 24.86914062 37.53710938 C41.34541716 50.05258643 57.73252608 59.45197062 78.8046875 60.96484375 C79.52785156 61.01898438 80.25101562 61.073125 80.99609375 61.12890625 C104.88222487 62.01806849 124.95776596 51.22189307 142.7421875 36.31640625 C145.39389155 34.09942868 148.0860416 31.97795432 150.8671875 29.92578125 C151.83035889 29.20696777 151.83035889 29.20696777 152.81298828 28.47363281 C154.01995339 27.57890639 155.23660085 26.69703319 156.46435547 25.83105469 C160.79339244 22.58524068 161.81161496 20.0810529 162.8046875 14.96484375 C160.86109931 14.96484375 159.12819995 16.58536882 157.5546875 17.58984375 Z M152.8046875 40.96484375 C151.87269531 41.73828125 150.94070312 42.51171875 149.98046875 43.30859375 C127.20540861 62.01141174 103.66022184 72.14431039 73.8046875 69.96484375 C54.44356008 67.95795025 38.2753342 59.82476476 23.19799805 47.92749023 C22.54226807 47.41645752 21.88653809 46.9054248 21.2109375 46.37890625 C20.62634766 45.91436035 20.04175781 45.44981445 19.43945312 44.97119141 C17.69884531 43.70273118 17.69884531 43.70273118 14.8046875 43.96484375 C26.25021841 60.9199712 40.24694822 73.36798725 59.8046875 79.96484375 C61.20460938 80.44244141 61.20460938 80.44244141 62.6328125 80.9296875 C78.17559176 85.34432507 95.68932178 84.3417027 110.8046875 78.96484375 C111.67609375 78.69929688 112.5475 78.43375 113.4453125 78.16015625 C121.52054302 75.42499752 128.13414296 70.12650173 134.8046875 64.96484375 C135.64386719 64.32546875 136.48304688 63.68609375 137.34765625 63.02734375 C144.19119968 57.40715941 148.90255043 50.25152766 153.8046875 42.96484375 C153.4746875 42.30484375 153.1446875 41.64484375 152.8046875 40.96484375 Z " fill="#171717" transform="translate(18.1953125,93.03515625)"/>
<path d="M0 0 C2.25 0.1875 2.25 0.1875 5 1 C5.59296875 1.79019531 6.1859375 2.58039062 6.796875 3.39453125 C9.37007422 6.4376587 11.27431068 7.19600874 15 8.5 C20.48846465 10.42096263 23.37554407 12.75108813 26 18 C26.99 17.071875 26.99 17.071875 28 16.125 C31.52888753 13.62537133 34.84977795 12.8468284 39 12 C42.70489705 11.10685518 46.382174 10.205942 50 9 C51.21672629 21.33625262 51.21672629 21.33625262 48.39453125 25.1953125 C46.3299539 26.73696688 44.3293219 27.90539384 42 29 C41.195625 29.45375 40.39125 29.9075 39.5625 30.375 C35.71677969 31.31298056 31.93748229 31.15441107 28 31 C27.79375 31.825 27.5875 32.65 27.375 33.5 C22.29382948 46.4338886 9.78359001 54.97083027 -2.40625 60.5625 C-27.85603823 71.48263707 -54.70842651 73.71873814 -80.671875 63.40234375 C-82.95258573 62.44134005 -85.21280654 61.43063946 -87.453125 60.37890625 C-99.89228509 54.81414955 -112.54068549 54.97843059 -126 55 C-123.06706145 58.24608067 -120.35710088 60.01412593 -116.37890625 61.8046875 C-115.27740234 62.30613281 -114.17589844 62.80757812 -113.04101562 63.32421875 C-111.31915039 64.09185547 -111.31915039 64.09185547 -109.5625 64.875 C-107.31380208 65.89322917 -105.06510417 66.91145833 -102.81640625 67.9296875 C-101.69331055 68.43314697 -100.57021484 68.93660645 -99.41308594 69.45532227 C-95.98476382 71.00689552 -92.58090421 72.60530204 -89.17578125 74.20703125 C-84.39606947 76.41688515 -79.6728679 78.3232222 -74.625 79.8125 C-73.97917969 80.01552734 -73.33335938 80.21855469 -72.66796875 80.42773438 C-49.11960882 87.60595677 -23.44492327 83.10090146 -2 72 C7.25291536 67.02073331 16.40145799 61.82147728 25.37109375 56.34765625 C26.00644043 55.96601318 26.64178711 55.58437012 27.29638672 55.19116211 C28.92651355 54.2070919 30.54397128 53.20211625 32.16015625 52.1953125 C35.59197766 50.75083196 37.45731632 51.00249545 41 52 C42 53 42 53 42.5625 55.6875 C41.80597764 60.14257609 40.05523925 60.82123153 36.50756836 63.35180664 C31.81024068 66.43930145 26.92063451 69.16249556 22 71.875 C20.89221191 72.48851318 19.78442383 73.10202637 18.64306641 73.73413086 C-1.25144903 84.69508495 -19.94773377 93.59562717 -43 95 C-44.03833984 95.06380859 -44.03833984 95.06380859 -45.09765625 95.12890625 C-69.60673257 95.83726106 -91.40886216 86.55000206 -113 76 C-113.8647998 75.58782227 -114.72959961 75.17564453 -115.62060547 74.75097656 C-132.60076937 66.63192647 -132.60076937 66.63192647 -136 59 C-137.7725912 53.29621337 -137.26736287 47.15995468 -137.3125 41.25 C-137.34150391 39.99960937 -137.37050781 38.74921875 -137.40039062 37.4609375 C-137.45460917 29.57005376 -137.10434291 23.61962613 -131.65820312 17.48974609 C-125.84692524 12.09714261 -118.89151365 11.69444813 -111.390625 11.734375 C-110.17944 11.73150482 -110.17944 11.73150482 -108.94378662 11.72857666 C-107.24279466 11.72722233 -105.54179211 11.73086592 -103.84082031 11.73925781 C-101.27124094 11.74991193 -98.7023696 11.73936597 -96.1328125 11.7265625 C-81.57604238 11.70756396 -70.6934551 13.68623728 -57.375 19.9375 C-56.10771139 20.51950385 -54.83971331 21.09996507 -53.57104492 21.67895508 C-50.9812782 22.86211496 -48.39401507 24.05045701 -45.80908203 25.24414062 C-39.99295192 27.92796823 -34.15887203 30.57024427 -28.3125 33.1875 C-27.31718262 33.64439209 -26.32186523 34.10128418 -25.29638672 34.57202148 C-14.64764484 39.33307235 -3.07385904 42.36790245 8.3125 38.4375 C13.2533348 36.28220671 15.33723031 33.61546747 18 29 C17.29875 28.9175 16.5975 28.835 15.875 28.75 C10.17374753 27.26271675 6.17668931 23.8709236 3 19 C0.18387265 13.29005904 -1.66577077 8.39139943 -1 2 C-0.67 1.34 -0.34 0.68 0 0 Z M-127 28 C-127.39415619 30.9767617 -127.52828556 33.31114578 -127.375 36.25 C-127.36082031 36.9821875 -127.34664062 37.714375 -127.33203125 38.46875 C-127.52247262 42.03233448 -127.52247262 42.03233448 -126 45 C-124.06864135 45.10987167 -122.13359826 45.15593341 -120.19921875 45.17578125 C-118.99330078 45.19962891 -117.78738281 45.22347656 -116.54492188 45.24804688 C-114.01643588 45.290295 -111.48774524 45.32192709 -108.95898438 45.34179688 C-100.60400913 45.53158237 -93.73996829 46.86893582 -86 50 C-85.20875732 50.31396729 -84.41751465 50.62793457 -83.60229492 50.95141602 C-80.77018795 52.10407949 -77.9653281 53.31480165 -75.16015625 54.53125 C-56.87145194 62.28593513 -37.06532173 61.2728417 -18.3125 55.5625 C-17.62905518 55.35729736 -16.94561035 55.15209473 -16.24145508 54.94067383 C-12.81773223 53.83934544 -10.24663699 52.88612917 -8 50 C-8.80179687 49.87625 -9.60359375 49.7525 -10.4296875 49.625 C-20.19709972 47.85313384 -28.4485707 44.45050207 -37.375 40.23583984 C-41.31497985 38.38091257 -45.27416135 36.56835819 -49.23291016 34.75390625 C-51.26555453 33.82144841 -53.29659492 32.88548266 -55.32568359 31.9453125 C-57.25768534 31.05336788 -59.19640611 30.17584255 -61.14135742 29.3125 C-64 28 -64 28 -66.5715332 26.578125 C-76.02829064 21.75834555 -85.91688951 22.24274718 -96.28393555 22.34814453 C-99.45545639 22.37515292 -102.62350309 22.34819624 -105.79492188 22.31640625 C-107.82032027 22.31970695 -109.84571652 22.32610612 -111.87109375 22.3359375 C-112.81383652 22.32581635 -113.75657928 22.31569519 -114.72789001 22.30526733 C-120.48410883 22.40814558 -123.48524332 22.99414812 -127 28 Z " fill="#171717" transform="translate(150,23)"/>
<path d="M0 0 C0.99 0.103125 1.98 0.20625 3 0.3125 C5 3.3125 5 3.3125 4.75 5.875 C4 8.3125 4 8.3125 2 10.3125 C-3.56818182 9.74431818 -3.56818182 9.74431818 -5 8.3125 C-5.1875 5.375 -5.1875 5.375 -5 2.3125 C-3 0.3125 -3 0.3125 0 0 Z " fill="#30302E" transform="translate(52,52.6875)"/>
<path d="M0 0 C0.33 0.99 0.66 1.98 1 3 C-2.63 6.3 -6.26 9.6 -10 13 C-10.66 12.67 -11.32 12.34 -12 12 C-11.38511719 11.46890625 -10.77023438 10.9378125 -10.13671875 10.390625 C-9.32847656 9.68421875 -8.52023438 8.9778125 -7.6875 8.25 C-6.48673828 7.20585937 -6.48673828 7.20585937 -5.26171875 6.140625 C-3.22034399 4.20854665 -1.60107149 2.30056874 0 0 Z " fill="#5D5D5C" transform="translate(164,146)"/>
</svg>
